<svg width="239" height="52" viewBox="0 0 239 52" fill="none" xmlns="http://www.w3.org/2000/svg">
<path d="M1 41.9399C6.45802 42.935 19.458 43.2193 27.7939 36.396C38.2137 27.8668 37.2114 17.8964 40.1985 11.6614C43.6718 4.41166 47.145 1.85291 58.0611 1M4.96947 46.2045C10.4275 47.1995 23.4275 47.4838 31.7634 40.6605C42.1832 32.1314 41.1808 22.161 44.1679 15.926C47.6412 8.67623 51.1145 6.11749 62.0305 5.26457M8.93893 50.469C14.3969 51.4641 27.3969 51.7484 35.7328 44.9251C46.1527 36.396 45.1503 26.4256 48.1374 20.1906C51.6107 12.9408 55.084 10.3821 66 9.52915" stroke="#2BA0FE" stroke-width="2" stroke-linecap="round"/>
<path d="M78.2347 45.1743C75.6719 45.1743 73.4788 44.623 71.6553 43.5205C69.8318 42.418 68.4272 40.8519 67.4415 38.8223C66.4805 36.7927 66 34.3747 66 31.5683C66 29.4636 66.2711 27.5843 66.8132 25.9305C67.3799 24.2517 68.1808 22.836 69.2158 21.6834C70.2754 20.5057 71.5691 19.6036 73.0968 18.9772C74.6246 18.3257 76.3372 18 78.2347 18C79.7625 18 81.2163 18.2255 82.5963 18.6765C83.9762 19.1025 85.1713 19.7415 86.1817 20.5934C86.502 20.844 86.7114 21.1321 86.81 21.4579C86.9332 21.7585 86.9455 22.0592 86.847 22.3599C86.7731 22.6355 86.6252 22.8736 86.4034 23.074C86.2063 23.2494 85.9599 23.3371 85.6642 23.3371C85.3685 23.3371 85.0358 23.2118 84.6662 22.9613C83.7791 22.2346 82.8057 21.6959 81.7461 21.3451C80.6865 20.9943 79.5407 20.8189 78.3086 20.8189C76.3619 20.8189 74.7109 21.2449 73.3556 22.0968C72.0003 22.9237 70.9776 24.139 70.2877 25.7426C69.5977 27.3462 69.2527 29.2882 69.2527 31.5683C69.2527 33.8485 69.5977 35.803 70.2877 37.4317C70.9776 39.0353 72.0003 40.2631 73.3556 41.115C74.7109 41.9419 76.3619 42.3554 78.3086 42.3554C79.516 42.3554 80.6619 42.18 81.7461 41.8292C82.8304 41.4533 83.8284 40.9021 84.7401 40.1754C85.1097 39.9248 85.4424 39.8121 85.7381 39.8371C86.0338 39.8371 86.2802 39.9248 86.4774 40.1002C86.6745 40.2756 86.81 40.5011 86.8839 40.7768C86.9825 41.0524 86.9825 41.3405 86.8839 41.6412C86.81 41.9419 86.6252 42.205 86.3295 42.4305C85.2945 43.3326 84.0748 44.0216 82.6702 44.4977C81.2902 44.9487 79.8117 45.1743 78.2347 45.1743Z" fill="white"/>
<path d="M93.1252 45.0991C92.928 45.0991 92.7432 45.0615 92.5707 44.9863C92.4229 44.9362 92.2873 44.836 92.1641 44.6856C92.0656 44.5353 91.9793 44.3724 91.9054 44.197C91.8561 43.9966 91.8315 43.7585 91.8315 43.4829V19.5786C91.8315 19.1025 91.9547 18.7392 92.2011 18.4886C92.4475 18.213 92.8048 18.0752 93.273 18.0752C93.7166 18.0752 94.0615 18.213 94.308 18.4886C94.5544 18.7392 94.6776 19.1025 94.6776 19.5786V40.8519H93.8644L109.906 19.0148C110.128 18.664 110.35 18.426 110.572 18.3007C110.818 18.1503 111.126 18.0752 111.496 18.0752C111.767 18.0752 111.988 18.1378 112.161 18.2631C112.333 18.3633 112.469 18.5262 112.568 18.7517C112.666 18.9772 112.715 19.2528 112.715 19.5786V43.5581C112.715 44.0592 112.592 44.4476 112.346 44.7232C112.124 44.9738 111.791 45.0991 111.348 45.0991C110.88 45.0991 110.522 44.9738 110.276 44.7232C110.029 44.4476 109.906 44.0592 109.906 43.5581V22.3223H110.719L94.6776 44.1595C94.4312 44.4852 94.2094 44.7232 94.0123 44.8736C93.8151 45.0239 93.5194 45.0991 93.1252 45.0991Z" fill="white"/>
<path d="M117.973 51C117.529 51 117.184 50.8747 116.938 50.6241C116.716 50.3736 116.605 50.0103 116.605 49.5342V43.7836C116.605 42.7563 117.11 42.2426 118.121 42.2426H120.523L118.712 42.7688C120.141 41.1651 121.201 38.9351 121.891 36.0786C122.581 33.197 122.926 29.5638 122.926 25.1788V20.0296C122.926 19.4784 123.061 19.0649 123.332 18.7893C123.628 18.4886 124.047 18.3383 124.589 18.3383H138.561C139.078 18.3383 139.485 18.4886 139.781 18.7893C140.076 19.0649 140.224 19.4784 140.224 20.0296V43.4829L139.005 42.2426H142.368C142.861 42.2426 143.243 42.3804 143.514 42.656C143.785 42.9066 143.921 43.2825 143.921 43.7836V49.5342C143.921 50.5114 143.465 51 142.553 51C142.085 51 141.727 50.8747 141.481 50.6241C141.259 50.3736 141.148 50.0103 141.148 49.5342V44.836H119.34V49.5342C119.34 50.5114 118.885 51 117.973 51ZM122.334 42.2426H137.156V20.9317H125.772V25.4043C125.772 29.4385 125.489 32.8087 124.922 35.5148C124.38 38.221 123.517 40.4636 122.334 42.2426Z" fill="white"/>
<path d="M149.44 45.0991C148.996 45.0991 148.651 44.9738 148.405 44.7232C148.159 44.4476 148.035 44.0718 148.035 43.5957V19.5786C148.035 19.0774 148.159 18.7016 148.405 18.451C148.651 18.2005 148.996 18.0752 149.44 18.0752C149.834 18.0752 150.142 18.1629 150.364 18.3383C150.61 18.4886 150.832 18.7517 151.029 19.1276L161.157 38.5216H160.048L170.139 19.1276C170.336 18.7517 170.546 18.4886 170.767 18.3383C170.989 18.1629 171.31 18.0752 171.728 18.0752C172.147 18.0752 172.48 18.2005 172.726 18.451C172.973 18.7016 173.096 19.0774 173.096 19.5786V43.5957C173.096 44.0718 172.973 44.4476 172.726 44.7232C172.505 44.9738 172.16 45.0991 171.691 45.0991C171.248 45.0991 170.903 44.9738 170.657 44.7232C170.41 44.4476 170.287 44.0718 170.287 43.5957V22.4727H171.174L161.933 40.1002C161.761 40.426 161.576 40.664 161.379 40.8144C161.206 40.9396 160.948 41.0023 160.603 41.0023C160.258 41.0023 159.987 40.9271 159.789 40.7768C159.592 40.6264 159.42 40.4009 159.272 40.1002L149.92 22.4351H150.808V43.5957C150.808 44.0718 150.684 44.4476 150.438 44.7232C150.216 44.9738 149.883 45.0991 149.44 45.0991Z" fill="white"/>
<path d="M179.027 45.0991C178.633 45.0991 178.313 45.0114 178.066 44.836C177.845 44.6355 177.709 44.385 177.66 44.0843C177.635 43.7585 177.709 43.3952 177.882 42.9943L188.046 19.4658C188.268 18.9647 188.527 18.6139 188.823 18.4134C189.143 18.1879 189.488 18.0752 189.857 18.0752C190.227 18.0752 190.56 18.1879 190.855 18.4134C191.176 18.6139 191.435 18.9647 191.632 19.4658L201.833 42.9943C202.031 43.3952 202.104 43.7585 202.055 44.0843C202.031 44.41 201.907 44.6606 201.686 44.836C201.464 45.0114 201.156 45.0991 200.761 45.0991C200.318 45.0991 199.961 44.9863 199.69 44.7608C199.419 44.5103 199.197 44.1595 199.024 43.7084L196.289 37.2813L197.768 38.0706H181.874L183.389 37.2813L180.691 43.7084C180.469 44.1845 180.235 44.5353 179.988 44.7608C179.742 44.9863 179.422 45.0991 179.027 45.0991ZM189.821 21.9465L183.87 36.1913L182.982 35.4772H196.659L195.845 36.1913L189.894 21.9465H189.821Z" fill="white"/>
<path d="M208.173 44.836C207.631 44.836 207.212 44.6982 206.916 44.4226C206.645 44.1219 206.51 43.6959 206.51 43.1446V19.6913C206.51 19.1651 206.633 18.7642 206.879 18.4886C207.15 18.213 207.532 18.0752 208.025 18.0752C208.518 18.0752 208.888 18.213 209.134 18.4886C209.405 18.7642 209.541 19.1651 209.541 19.6913V42.1674H221.258V19.6913C221.258 19.1651 221.381 18.7642 221.628 18.4886C221.899 18.213 222.281 18.0752 222.773 18.0752C223.242 18.0752 223.599 18.213 223.845 18.4886C224.116 18.7642 224.252 19.1651 224.252 19.6913V42.1674H235.969V19.6913C235.969 19.1651 236.105 18.7642 236.376 18.4886C236.647 18.213 237.016 18.0752 237.485 18.0752C237.977 18.0752 238.347 18.213 238.593 18.4886C238.864 18.7642 239 19.1651 239 19.6913V43.1446C239 43.6959 238.852 44.1219 238.556 44.4226C238.285 44.6982 237.879 44.836 237.337 44.836H208.173Z" fill="white"/>
</svg>
