<?xml version="1.0" standalone="no"?>
<!DOCTYPE svg PUBLIC "-//W3C//DTD SVG 20010904//EN"
 "http://www.w3.org/TR/2001/REC-SVG-20010904/DTD/svg10.dtd">
<svg version="1.0" xmlns="http://www.w3.org/2000/svg"
 width="1072.000000pt" height="1072.000000pt" viewBox="0 0 1072.000000 1072.000000"
 preserveAspectRatio="xMidYMid meet">
<metadata>
Created by potrace 1.14, written by Peter Selinger 2001-2017
</metadata>
<g transform="translate(0.000000,1072.000000) scale(0.100000,-0.100000)"
fill="#000000" stroke="none">
<path d="M9180 9513 c-19 -2 -102 -10 -185 -19 -839 -84 -1397 -260 -1820
-573 -116 -86 -332 -299 -427 -421 -152 -198 -285 -419 -429 -715 -147 -304
-205 -481 -364 -1113 -204 -811 -319 -1142 -547 -1575 -258 -489 -658 -960
-1122 -1321 -452 -353 -1032 -608 -1706 -750 -450 -96 -860 -136 -1370 -136
-341 0 -592 16 -874 56 -216 30 -244 27 -295 -31 -53 -61 -54 -149 -1 -209 39
-44 60 -51 220 -76 573 -87 1310 -87 1930 0 808 114 1497 355 2050 717 235
154 451 334 685 568 508 509 855 1080 1100 1809 73 217 118 380 236 846 165
652 216 808 354 1089 238 484 464 785 750 1002 381 289 943 452 1825 529 152
13 181 22 219 65 52 60 53 147 4 206 -46 54 -100 66 -233 52z"/>
<path d="M9655 8815 c-734 -78 -1212 -202 -1600 -418 -456 -253 -798 -658
-1115 -1320 -131 -275 -200 -486 -346 -1071 -176 -705 -287 -1046 -459 -1411
-356 -756 -1000 -1444 -1702 -1818 -480 -255 -1029 -424 -1658 -511 -621 -86
-1391 -80 -1919 15 -33 6 -75 8 -93 4 -47 -9 -110 -68 -123 -116 -19 -69 17
-151 79 -184 38 -19 325 -61 562 -82 272 -23 859 -23 1139 1 1178 100 2105
436 2799 1016 679 567 1135 1229 1420 2064 90 264 137 429 271 954 156 615
215 793 360 1083 202 402 420 702 650 894 399 333 949 505 1878 590 182 16
215 26 251 71 87 110 5 267 -136 263 -21 -1 -137 -11 -258 -24z"/>
<path d="M10495 8154 c-724 -72 -1134 -153 -1495 -295 -564 -222 -934 -563
-1281 -1184 -234 -419 -312 -637 -514 -1445 -166 -665 -276 -990 -465 -1375
-312 -634 -812 -1207 -1390 -1592 -776 -517 -1932 -787 -3138 -735 -271 12
-524 36 -700 67 -123 21 -184 0 -223 -76 -37 -73 -13 -166 53 -207 81 -50 534
-99 1008 -109 1295 -26 2473 283 3279 860 496 356 953 859 1261 1387 264 454
426 896 630 1710 187 748 252 937 446 1294 165 304 299 493 473 667 228 229
463 370 805 484 300 99 665 167 1160 215 234 22 261 31 296 101 26 50 25 105
-3 153 -36 65 -100 90 -202 80z"/>
</g>
</svg>
